<?xml version="1.0" standalone="no"?>
<!DOCTYPE svg PUBLIC "-//W3C//DTD SVG 20010904//EN"
 "http://www.w3.org/TR/2001/REC-SVG-20010904/DTD/svg10.dtd">
<svg version="1.0" xmlns="http://www.w3.org/2000/svg"
 width="21mm" height="30mm" viewBox="0 -15 170 220"
 preserveAspectRatio="xMidYMid meet">

<g transform="translate(0.000000,165) scale(0.100000,-0.100000)"
fill="#fff" stroke="#fff" stroke-linecap="round" stroke-linejoin="round" stroke-width="150" style="paint-order:fill markers stroke">
<path d="M955 1538 c-77 -14 -362 -106 -441 -143 -159 -73 -362 -244 -412
-347 -59 -121 -66 -299 -18 -442 79 -233 172 -349 351 -436 230 -113 516 -85
855 82 154 76 219 135 273 248 79 167 108 333 88 501 -16 128 -44 239 -78 307
-35 69 -117 146 -195 182 -116 53 -290 73 -423 48z m218 -15 c4 -2 7 -182 7
-399 l0 -394 -187 2 -188 3 0 374 0 375 60 18 c83 25 180 37 245 31 30 -3 58
-7 63 -10z m155 -29 c213 -79 305 -255 306 -589 1 -77 -2 -148 -6 -157 -7 -16
-27 -18 -216 -18 l-209 0 -6 391 c-4 215 -5 395 -2 399 8 12 55 3 133 -26z
m-546 -394 l3 -365 -167 0 c-91 0 -168 2 -171 5 -2 3 -8 139 -11 302 l-7 297
43 22 c54 28 279 109 295 106 9 -1 13 -91 15 -367z m-362 -76 l0 -284 -181 0
-182 0 7 78 c16 176 46 244 150 348 72 72 185 155 199 147 4 -2 7 -132 7 -289z
m1198 -318 c6 -7 -50 -160 -80 -218 -48 -91 -91 -133 -196 -192 -230 -129
-495 -197 -686 -176 -155 18 -263 69 -381 181 -55 52 -81 88 -109 144 -34 69
-96 243 -96 268 0 7 225 8 772 3 425 -3 774 -8 776 -10z"/>
</g>
</svg>
