<?xml version="1.0" standalone="no"?>
<!DOCTYPE svg PUBLIC "-//W3C//DTD SVG 20010904//EN"
 "http://www.w3.org/TR/2001/REC-SVG-20010904/DTD/svg10.dtd">
<svg version="1.0" xmlns="http://www.w3.org/2000/svg"
 width="21mm" height="30mm" viewBox="5 0 190 180">

<g transform="translate(0.000000,193.000000) scale(0.100000,-0.100000)"
fill="#000" stroke="none">
<path d="M493 1835 c-290 -63 -443 -338 -443 -795 0 -226 26 -363 95 -505 104
-214 282 -353 540 -422 89 -23 118 -26 270 -26 157 -1 177 1 258 26 367 113
611 407 658 793 27 229 -45 540 -183 784 -67 118 -113 150 -217 150 -70 0
-106 -12 -143 -48 -36 -34 -37 -77 -2 -123 37 -48 108 -199 138 -294 78 -246
84 -439 17 -632 -37 -106 -80 -180 -156 -261 -143 -155 -297 -207 -490 -167
-204 43 -350 194 -412 425 -27 97 -26 481 1 595 44 191 123 295 221 295 67 0
111 -18 148 -60 45 -49 65 -116 74 -245 6 -90 9 -102 33 -126 64 -65 210 -65
279 0 30 28 31 31 31 125 0 116 -13 181 -52 264 -77 165 -272 263 -515 261
-48 0 -116 -7 -150 -14z" />
</g>
</svg>
